<?xml version="1.0" standalone="no"?><!DOCTYPE svg PUBLIC "-//W3C//DTD SVG 1.1//EN" "http://www.w3.org/Graphics/SVG/1.1/DTD/svg11.dtd"><svg t="1620359230505" class="icon" viewBox="0 0 1024 1024" version="1.1" xmlns="http://www.w3.org/2000/svg" p-id="4500" width="32" height="32" xmlns:xlink="http://www.w3.org/1999/xlink"><defs><style type="text/css"></style></defs><path d="M969.1 619.34a20 20 0 0 1-15.27-7.07l-74-87.34a20 20 0 1 1 30.51-25.86l74 87.34a20 20 0 0 1-15.24 32.93z" p-id="4501" fill="#09a51f"></path><path d="M509.92 917.55A405.62 405.62 0 0 1 142.53 684a20 20 0 1 1 36.22-17c60 127.92 190 210.57 331.17 210.57 186.31 0 340.47-140.41 362.45-321.08l-47.82 39.2a20 20 0 0 1-25.36-30.93l83.18-68.21A20 20 0 0 1 915.05 512a404.78 404.78 0 0 1-405.13 405.55zM124.37 531.18a20 20 0 0 1-20-20 405.61 405.61 0 0 1 771.44-174.31 20 20 0 1 1-36.07 17.29c-60.5-126.18-190-207.71-329.82-207.71-201.14 0-365.13 163.63-365.55 364.77a20 20 0 0 1-20 19.96z" p-id="4502" fill="#09a51f"></path><path d="M124.38 532a20 20 0 0 1-14.28-6l-69.46-70.69a20 20 0 1 1 28.55-28l59 60.09 76.24-40.45a20 20 0 1 1 18.75 35.33l-89.42 47.46a20 20 0 0 1-9.38 2.26zM453.69 704.71c-1 0-2 0-3-0.08a51.89 51.89 0 0 1-39.79-15.15l-146-146a52.07 52.07 0 0 1 0-73.53l12.73-12.74a52.1 52.1 0 0 1 73.54 0l99.52 99.53 222.17-222.22a52 52 0 0 1 73.54 0l12.73 12.72a52 52 0 0 1 0 73.53l-268.7 268.7a51.84 51.84 0 0 1-36.74 15.24zM314.37 482a12 12 0 0 0-8.5 3.51l-12.72 12.72a12 12 0 0 0 0 17l146 146a12 12 0 0 0 9.63 3.46 19.37 19.37 0 0 1 3.73 0 12 12 0 0 0 9.63-3.46l268.7-268.7a12 12 0 0 0 0-17l-12.73-12.73a12 12 0 0 0-17 0L464.79 599.16a20 20 0 0 1-14.14 5.84 20 20 0 0 1-14.15-5.86L322.85 485.5a12 12 0 0 0-8.48-3.5z" p-id="4503" fill="#09a51f"></path></svg>